<?xml version="1.0" encoding="UTF-8"?>
<svg version="1.1" xmlns="http://www.w3.org/2000/svg" width="1080" height="1080">
<path d="M0 0 C0.84916992 0.28117676 1.69833984 0.56235352 2.57324219 0.85205078 C10.3213236 3.44047927 17.90605736 6.22756024 25.29296875 9.73828125 C28.32591416 11.15190516 31.40591191 12.41346373 34.5 13.6875 C42.8611403 17.24855646 50.82035245 21.51838625 58.81542969 25.82763672 C60.71618717 26.84769007 62.62681066 27.84931726 64.5390625 28.84765625 C83.86169067 38.98844002 101.89677421 51.49027112 119 65 C119.825 65.64195312 120.65 66.28390625 121.5 66.9453125 C128.63120079 72.55174997 135.44006994 78.52782155 142.25976562 84.50537109 C143.96148041 85.96691681 145.70199632 87.36790979 147.453125 88.76953125 C148.29359375 89.50558594 149.1340625 90.24164063 150 91 C150 91.66 150 92.32 150 93 C150.66 93 151.32 93 152 93 C152 93.66 152 94.32 152 95 C152.556875 95.226875 153.11375 95.45375 153.6875 95.6875 C156.66159588 97.37550036 158.72008865 99.46676517 161 102 C161 102.66 161 103.32 161 104 C161.66 104 162.32 104 163 104 C164.375 105.36328125 164.375 105.36328125 166 107.3125 C168.84002365 110.66302377 171.75815152 113.90923929 174.75 117.125 C179.99024519 122.87899472 184.7862245 128.91447743 189.52294922 135.0859375 C191.04466914 137.05788529 192.58528672 139.0139106 194.12890625 140.96875 C201.90757914 150.88835283 208.88911877 161.19350182 215.62841797 171.84277344 C216.7893452 173.66868178 217.97235943 175.48051833 219.16015625 177.2890625 C222.6342498 182.58800958 225.59436603 187.97564612 228.3515625 193.6796875 C229.53188112 196.05710651 230.73981564 198.37570133 232.0234375 200.6953125 C238.15461949 211.8191846 243.0695907 223.30848183 247.81201172 235.08447266 C249.01758221 238.04314976 250.26994391 240.97932447 251.5234375 243.91796875 C254.13437588 250.17925441 256.31062286 256.54021408 258.375 263 C258.76002686 264.20479004 259.14505371 265.40958008 259.54174805 266.65087891 C286.15417968 351.45634122 283.73450005 441.9145067 256 526 C255.64518555 527.09159424 255.29037109 528.18318848 254.92480469 529.30786133 C254.5796582 530.36126709 254.23451172 531.41467285 253.87890625 532.5 C253.57412354 533.43199219 253.26934082 534.36398437 252.95532227 535.32421875 C251.639833 539.00879896 250.00491172 542.50777789 248.3359375 546.04296875 C246.8379481 549.35869382 245.54908138 552.72657441 244.25 556.125 C241.14360529 564.12021446 237.12608179 571.54761373 233.03125 579.07080078 C231.61468215 581.720829 230.30726569 584.41968628 229 587.125 C225.42350901 594.33709753 221.24695211 601.16833226 217 608 C216.6297168 608.59603027 216.25943359 609.19206055 215.87792969 609.80615234 C207.47191185 623.26247003 198.21214953 636.01070995 188.29199219 648.38769531 C187.09861044 649.87694192 185.91226371 651.37181862 184.7265625 652.8671875 C180.01851447 658.73100183 175.05466649 664.29456434 169.89672852 669.76196289 C167.1256033 672.6446572 167.1256033 672.6446572 165 676 C164.34 676 163.68 676 163 676 C163 676.66 163 677.32 163 678 C162.34 678 161.68 678 161 678 C160.773125 678.556875 160.54625 679.11375 160.3125 679.6875 C158.62449964 682.66159588 156.53323483 684.72008865 154 687 C153.34 687 152.68 687 152 687 C152 687.66 152 688.32 152 689 C151.34 689 150.68 689 150 689 C150 689.66 150 690.32 150 691 C148.6015625 692.41015625 148.6015625 692.41015625 146.625 694.0625 C143.47821792 696.73066312 140.40792312 699.45308248 137.375 702.25 C131.7255222 707.34577707 125.77148039 712.00249548 119.74951172 716.64453125 C118.10587542 717.91797093 116.47504329 719.20589608 114.84765625 720.5 C105.91194896 727.53137622 96.54292115 733.82480518 87 740 C86.28312012 740.4650293 85.56624023 740.93005859 84.82763672 741.40917969 C77.45406325 746.17039168 70.09234757 750.65603654 62.1640625 754.44921875 C59.78770006 755.61392972 57.46909707 756.81471667 55.1484375 758.08203125 C45.44414465 763.37683965 35.59283062 767.84775037 25.3527832 772.00341797 C22.84141787 773.06717155 20.38991001 774.22968259 17.92578125 775.3984375 C10.83592803 778.64148472 3.47643002 781.00513159 -3.9375 783.375 C-4.67722046 783.61300323 -5.41694092 783.85100647 -6.17907715 784.09622192 C-95.62341552 812.77974045 -191.91135821 810.64836731 -289 775 C-290.16982422 774.53859619 -290.16982422 774.53859619 -291.36328125 774.06787109 C-301.49562937 770.03498375 -311.21568447 765.51755899 -320.77734375 760.2734375 C-324.07834216 758.46504331 -327.43325825 756.79406429 -330.8125 755.13671875 C-336.74733694 752.18397087 -342.41764497 748.90803319 -348.0625 745.4375 C-349.0512915 744.83107666 -350.04008301 744.22465332 -351.05883789 743.59985352 C-365.87962503 734.43719886 -379.91516569 724.64199398 -393.26757812 713.44433594 C-395.73464219 711.38752209 -398.24540691 709.38583045 -400.75 707.375 C-405.30563615 703.65330027 -409.64931969 699.73496113 -413.94238281 695.71630859 C-416.011428 693.78515262 -418.05090792 691.96323788 -420.34765625 690.3046875 C-421.16556641 689.65886719 -421.16556641 689.65886719 -422 689 C-422 688.34 -422 687.68 -422 687 C-422.556875 686.773125 -423.11375 686.54625 -423.6875 686.3125 C-426.66159588 684.62449964 -428.72008865 682.53323483 -431 680 C-431 679.34 -431 678.68 -431 678 C-431.66 678 -432.32 678 -433 678 C-434.65625 676.390625 -434.65625 676.390625 -436.5 674.25 C-437.1084375 673.55390625 -437.716875 672.8578125 -438.34375 672.140625 C-439.87976963 670.15539208 -440.9723966 668.28127955 -442 666 C-442.66 666 -443.32 666 -444 666 C-445.70703125 664.15625 -445.70703125 664.15625 -447.8125 661.5 C-449.0190625 659.98792969 -449.0190625 659.98792969 -450.25 658.4453125 C-450.69085938 657.89004883 -451.13171875 657.33478516 -451.5859375 656.76269531 C-453.05882963 654.92666611 -454.55702686 653.11407803 -456.0625 651.3046875 C-463.88471623 641.87239941 -471.12946827 632.14578522 -478 622 C-478.39638672 621.41573242 -478.79277344 620.83146484 -479.20117188 620.22949219 C-486.40839927 609.51857799 -492.71134836 598.26586204 -499 587 C-499.57862793 585.96891113 -499.57862793 585.96891113 -500.16894531 584.91699219 C-511.42684211 564.76088702 -520.14009844 543.24927494 -527.4375 521.375 C-527.67300568 520.67088989 -527.90851135 519.96677979 -528.15115356 519.24133301 C-532.98960727 504.68865418 -536.77083604 489.99665115 -540 475 C-540.20705566 474.06333496 -540.41411133 473.12666992 -540.62744141 472.16162109 C-543.9601956 456.92416783 -545.61693476 441.52295933 -547 426 C-547.07347656 425.19062988 -547.14695312 424.38125977 -547.22265625 423.54736328 C-550.93553237 380.32593042 -547.09276356 336.08256362 -537 294 C-536.67177246 292.60950439 -536.67177246 292.60950439 -536.33691406 291.19091797 C-531.34481721 270.26975736 -524.47652598 249.77154943 -516 230 C-515.68627441 229.26716797 -515.37254883 228.53433594 -515.04931641 227.77929688 C-502.56885106 198.82982487 -487.17497654 171.06541003 -468 146 C-467.52079102 145.37061523 -467.04158203 144.74123047 -466.54785156 144.09277344 C-457.79520129 132.6460707 -448.52508235 121.63489977 -438.77734375 111.0234375 C-436.85240994 108.92199209 -436.85240994 108.92199209 -435 106 C-434.34 106 -433.68 106 -433 106 C-432.7628125 105.43796875 -432.525625 104.8759375 -432.28125 104.296875 C-430.71052303 101.48105958 -428.78528536 99.52044584 -426.5 97.25 C-425.30890625 96.05117187 -425.30890625 96.05117187 -424.09375 94.828125 C-422 93 -422 93 -420 93 C-420 92.34 -420 91.68 -420 91 C-418.77734375 89.73046875 -418.77734375 89.73046875 -416.9375 88.1875 C-414.17867686 85.84976039 -411.43114573 83.50565012 -408.7265625 81.10546875 C-399.48618814 72.93507227 -389.89579045 65.35789945 -380 58 C-378.91912109 57.18764893 -378.91912109 57.18764893 -377.81640625 56.35888672 C-367.03486232 48.27032647 -355.91497582 41.06121862 -344.25244141 34.30761719 C-342.25688899 33.14913261 -340.27304241 31.97372195 -338.29296875 30.7890625 C-329.5184125 25.62034834 -320.43069182 21.27363807 -311.18896484 17.01220703 C-309.26296784 16.12159989 -307.34380349 15.21624799 -305.42578125 14.30859375 C-292.38399441 8.16467695 -278.97951806 3.10937076 -265.3125 -1.4375 C-264.60644623 -1.67300568 -263.90039246 -1.90851135 -263.17294312 -2.15115356 C-233.06650152 -12.14200015 -202.55890451 -18.07243871 -171 -21 C-170.21834473 -21.07347656 -169.43668945 -21.14695312 -168.63134766 -21.22265625 C-111.54659025 -26.25994064 -54.17454263 -18.02304823 0 0 Z " fill="#1075FE" transform="translate(675,149)"/>
<path d="M0 0 C1.26171524 -0.00570007 2.52343048 -0.01140015 3.82337952 -0.01727295 C6.49207144 -0.02670197 9.16065157 -0.03360884 11.8293457 -0.03710938 C14.53391141 -0.04147575 17.23815483 -0.05530314 19.94262695 -0.078125 C54.09102035 -0.34538237 77.62194769 5.66462059 102.56689453 29.84423828 C103.78129754 31.01814713 105.01402479 32.17304459 106.25 33.32421875 C120.85112107 47.23142515 126.98865903 61.43800455 129.41015625 80.953125 C130.21473832 87.21643875 131.11438492 93.32837067 132.66015625 99.453125 C134.83719313 108.29949709 134.7170428 115.80401938 130.97265625 124.203125 C130.31265625 125.193125 129.65265625 126.183125 128.97265625 127.203125 C128.43952597 129.58062519 128.43952597 129.58062519 128.15625 132.25390625 C128.0322583 133.25679687 127.9082666 134.2596875 127.78051758 135.29296875 C127.65829834 136.35644531 127.5360791 137.41992188 127.41015625 138.515625 C127.28084717 139.59328125 127.15153809 140.6709375 127.01831055 141.78125 C126.1040345 149.57745676 125.37299238 157.36205864 124.97265625 165.203125 C125.90464844 164.99042969 126.83664062 164.77773438 127.796875 164.55859375 C129.36888672 164.38263672 129.36888672 164.38263672 130.97265625 164.203125 C133.59221169 166.35698169 135.45238922 168.16259094 136.97265625 171.203125 C137.78056303 183.31571035 136.4127628 194.60373159 133.77441406 206.41186523 C133.21542592 208.92310708 132.6900274 211.43983264 132.16796875 213.95898438 C131.81833243 215.58635253 131.46683894 217.21332304 131.11328125 218.83984375 C130.88176361 219.9477552 130.88176361 219.9477552 130.64556885 221.07804871 C129.3066702 226.95881982 127.33672545 232.21232988 122.59765625 236.203125 C119.3321242 237.44713721 117.34808827 236.87263218 113.97265625 236.203125 C113.87766846 236.81607422 113.78268066 237.42902344 113.68481445 238.06054688 C110.19040555 260.24226653 106.60501377 278.56311062 89.78515625 294.578125 C88.18540762 296.12544381 86.58767061 297.67484576 84.9921875 299.2265625 C84.29198486 299.89606934 83.59178223 300.56557617 82.87036133 301.25537109 C79.07581421 304.95511919 79.07581421 304.95511919 77.78393555 309.91357422 C77.87070557 310.93467285 77.95747559 311.95577148 78.046875 313.0078125 C78.13662598 314.14307373 78.22637695 315.27833496 78.31884766 316.44799805 C78.43147949 317.64593994 78.54411133 318.84388184 78.66015625 320.078125 C78.76247559 321.29218018 78.86479492 322.50623535 78.97021484 323.75708008 C79.68682899 331.94985634 80.56421611 340.09710248 81.97265625 348.203125 C82.55168701 348.29746826 83.13071777 348.39181152 83.72729492 348.48901367 C90.88267318 349.77389128 97.48981054 351.96229228 104.28515625 354.515625 C106.03372925 355.17050903 106.03372925 355.17050903 107.81762695 355.83862305 C146.80230137 370.69401088 189.82076621 387.24527505 208.1015625 427.23925781 C217.83985329 449.19408155 226.67769415 480.92795274 217.97265625 504.203125 C209.99477141 521.1297484 197.38523104 529.11900802 180.3671875 535.34765625 C142.41052905 548.67491431 102.01535556 554.71191113 61.97265625 557.203125 C60.57974365 557.28989502 60.57974365 557.28989502 59.15869141 557.37841797 C-8.10212731 561.2993479 -77.94570071 557.65141049 -142.33984375 536.703125 C-143.995 536.16981567 -143.995 536.16981567 -145.68359375 535.62573242 C-161.98035981 530.14343878 -174.95568275 521.80683736 -183.02734375 506.203125 C-192.97322415 482.49449496 -184.30853227 452.64457563 -175.33203125 429.79296875 C-159.87789144 392.13004394 -124.10873803 376.54640186 -88.49316406 361.62011719 C-82.51905901 359.1776189 -76.50743363 356.84549774 -70.46484375 354.578125 C-68.81560913 353.95695801 -68.81560913 353.95695801 -67.13305664 353.32324219 C-60.82696512 351.01882269 -54.65789716 349.27784994 -48.02734375 348.203125 C-47.09344807 341.24590966 -46.23116922 334.28331142 -45.41748047 327.31103516 C-45.07814685 324.60783307 -44.66681284 321.93279262 -44.21875 319.24609375 C-43.37493997 313.45996786 -42.89147056 309.06873699 -46.0703125 303.84765625 C-48.32555457 301.16437248 -50.83419159 298.82444918 -53.484375 296.53662109 C-72.72763243 279.90581855 -76.29192493 260.30750701 -80.02734375 236.203125 C-80.96320313 236.38875 -81.8990625 236.574375 -82.86328125 236.765625 C-86.02734375 237.203125 -86.02734375 237.203125 -88.65234375 236.203125 C-94.05819065 231.65083288 -95.77645649 225.49882826 -97.16796875 218.83984375 C-97.4258316 217.65356133 -97.4258316 217.65356133 -97.68890381 216.4433136 C-98.04776572 214.77300531 -98.40038974 213.10134582 -98.74707031 211.4284668 C-99.26897194 208.93069175 -99.82249066 206.44145286 -100.37890625 203.95117188 C-102.14686907 195.75815609 -103.3885263 187.74190088 -103.51171875 179.34765625 C-103.53107483 178.61552414 -103.55043091 177.88339203 -103.57037354 177.1290741 C-103.52053474 172.05368772 -102.29984452 169.05683785 -99.02734375 165.203125 C-94.02734375 163.703125 -94.02734375 163.703125 -91.02734375 165.203125 C-91.47785585 156.37930177 -92.33929615 147.60452912 -93.33984375 138.828125 C-93.44530518 137.80654297 -93.5507666 136.78496094 -93.65942383 135.73242188 C-94.31822874 130.20189238 -95.2964506 125.77138089 -98.11401367 120.93505859 C-102.48873498 112.63934275 -99.65003139 102.91862643 -97.59106445 94.3737793 C-96.30363885 88.8853997 -95.53650292 83.50094875 -95.02734375 77.890625 C-93.00671879 57.16083969 -83.16492017 44.60830203 -69.02734375 30.203125 C-68.14260376 29.29421509 -68.14260376 29.29421509 -67.23999023 28.36694336 C-48.6073918 9.42750921 -26.50471575 0.09353836 0 0 Z " fill="#FEFEFE" transform="translate(523.02734375,260.796875)"/>
<path d="M0 0 C6.78997692 5.57008256 12.9114207 11.7778029 19.10359192 17.99006653 C20.33305832 19.21981318 21.56274672 20.44933791 22.79263705 21.67866057 C26.16147379 25.04720251 29.52719257 28.41884469 32.89240921 31.79100263 C36.52583819 35.43081645 40.16218038 39.06771776 43.79818726 42.70495605 C50.09441827 49.00407119 56.38887098 55.30495876 62.68216896 61.60700417 C71.78286325 70.72025544 80.8867978 79.83026427 89.99162134 88.93938991 C104.76627124 103.72110387 119.53905138 118.50468484 134.31030273 133.28979492 C135.63589692 134.61663082 135.63589692 134.61663082 136.98827078 135.97027149 C143.26306275 142.25096548 149.53778824 148.53172588 155.8125 154.8125 C162.98880341 161.99573431 170.16513923 169.17893623 177.34155273 176.36206055 C178.22572055 177.24705649 179.10988837 178.13205243 180.02084915 179.04386643 C194.74337449 193.7800596 209.46784972 208.51430294 224.19372767 223.24714583 C233.28076256 232.33866969 242.36600989 241.43197301 251.44898745 250.52755042 C257.66503398 256.75199881 263.88282597 262.97469988 270.10201762 269.1960058 C273.6943988 272.78973682 277.28592993 276.38430744 280.87529945 279.98104668 C284.15626554 283.26872415 287.43948892 286.55412914 290.72457656 289.83768817 C291.91706441 291.03044912 293.10869148 292.22407136 294.2994021 293.4186065 C295.90901922 295.03315637 297.52164062 296.64464261 299.13509846 298.25535297 C300.03276001 299.15393632 300.93042157 300.05251967 301.85528499 300.97833282 C303.83182092 303.03594555 303.83182092 303.03594555 306 304 C303.01312074 325.61414447 297.22836002 346.81635832 290.375 367.5 C290.01519043 368.59022461 289.65538086 369.68044922 289.28466797 370.80371094 C287.21892059 376.89292171 284.85433853 382.7247123 282.12939453 388.54785156 C280.68055457 391.6935819 279.46849905 394.88319079 278.25 398.125 C275.14824636 406.12157868 271.12571322 413.54829088 267.03125 421.07080078 C265.61468215 423.720829 264.30726569 426.41968628 263 429.125 C259.42350901 436.33709753 255.24695211 443.16833226 251 450 C250.6297168 450.59603027 250.25943359 451.19206055 249.87792969 451.80615234 C241.47191185 465.26247003 232.21214953 478.01070995 222.29199219 490.38769531 C221.09861044 491.87694192 219.91226371 493.37181862 218.7265625 494.8671875 C214.01851447 500.73100183 209.05466649 506.29456434 203.89672852 511.76196289 C201.1256033 514.6446572 201.1256033 514.6446572 199 518 C198.34 518 197.68 518 197 518 C197 518.66 197 519.32 197 520 C196.34 520 195.68 520 195 520 C194.6596875 520.8353125 194.6596875 520.8353125 194.3125 521.6875 C192.62449964 524.66159588 190.53323483 526.72008865 188 529 C187.34 529 186.68 529 186 529 C186 529.66 186 530.32 186 531 C185.34 531 184.68 531 184 531 C184 531.66 184 532.32 184 533 C182.6015625 534.41015625 182.6015625 534.41015625 180.625 536.0625 C177.47821792 538.73066312 174.40792312 541.45308248 171.375 544.25 C165.7255222 549.34577707 159.77148039 554.00249548 153.74951172 558.64453125 C152.10587542 559.91797093 150.47504329 561.20589608 148.84765625 562.5 C139.91194896 569.53137622 130.54292115 575.82480518 121 582 C120.28312012 582.4650293 119.56624023 582.93005859 118.82763672 583.40917969 C111.45406325 588.17039168 104.09234757 592.65603654 96.1640625 596.44921875 C93.78770006 597.61392972 91.46909707 598.81471667 89.1484375 600.08203125 C79.44414465 605.37683965 69.59283062 609.84775037 59.3527832 614.00341797 C56.84141787 615.06717155 54.38991001 616.22968259 51.92578125 617.3984375 C44.83592803 620.64148472 37.47643002 623.00513159 30.0625 625.375 C29.32277954 625.61300323 28.58305908 625.85100647 27.82092285 626.09622192 C-14.51944778 639.67417249 -57.15473056 646.01472508 -101.5625 646.125 C-102.30178741 646.12776947 -103.04107483 646.13053894 -103.80276489 646.13339233 C-111.91535365 646.15560686 -119.94183215 646.07311867 -128 645 C-128 644.67 -128 644.34 -128 644 C-126.02 643.67 -124.04 643.34 -122 643 C-175.13 589.87 -228.26 536.74 -283 482 C-282.34 481.67 -281.68 481.34 -281 481 C-278.79174805 481.85766602 -278.79174805 481.85766602 -276.07421875 483.19140625 C-199.85052449 519.10294345 -94.69195257 517.7083412 58.3125 489.5 C59.4159375 489.14446045 60.519375 488.7889209 61.65625 488.42260742 C77.02055347 483.25399772 89.74625048 475.73768484 97.59375 461.09765625 C107.78893233 438.63993517 99.98836949 410.12636545 92 388 C78.56171747 352.28163813 51.19882691 337.5089252 17.91479492 322.2512207 C-7.41129798 310.77785251 -7.41129798 310.77785251 -34.05444336 303.18383789 C-36 302 -36 302 -37.21630859 298.83813477 C-38.3616347 293.22889122 -38.93778976 287.62347386 -39.48754883 281.92919922 C-39.6877735 279.87219023 -39.90282436 277.81709074 -40.11914062 275.76171875 C-40.24869141 274.45589844 -40.37824219 273.15007812 -40.51171875 271.8046875 C-40.68900513 270.02553955 -40.68900513 270.02553955 -40.86987305 268.21044922 C-41.0410633 263.98689972 -40.84200822 261.14748097 -38.3203125 257.7109375 C-37.23363281 256.55464844 -37.23363281 256.55464844 -36.125 255.375 C-35.31675781 254.50617188 -34.50851562 253.63734375 -33.67578125 252.7421875 C-30.9394327 249.93792957 -28.13066114 247.2217808 -25.3125 244.5 C-11.41412116 230.60162116 -8.58074903 212.59642917 -5.40136719 193.90087891 C-5 192 -5 192 -4 190 C-1.76933366 189.72399463 0.42937319 189.68498868 2.67578125 189.63671875 C6.12281819 188.69240443 7.02834176 186.9499749 9 184 C9.85554357 181.23262026 10.53344676 178.63449291 11.10546875 175.8125 C11.27500565 175.03237549 11.44454254 174.25225098 11.61921692 173.44848633 C12.15503237 170.96824458 12.67147771 168.4844268 13.1875 166 C13.54495828 164.33045768 13.90366996 162.66118319 14.26367188 160.9921875 C15.1931471 156.66493481 16.10363613 152.33423874 17 148 C17.19601807 147.09378906 17.39203613 146.18757812 17.59399414 145.25390625 C18.26816273 141.51131788 18.22536651 137.79355679 18.25 134 C18.270625 133.2059375 18.29125 132.411875 18.3125 131.59375 C18.34356023 126.93471579 18.12733557 123.726498 15 120 C11.38265938 118.94494232 9.59002381 118.8033254 6 120 C8.77676153 82.09854444 8.77676153 82.09854444 14 73 C16.55672778 64.69893579 14.61548626 56.66792277 12.6340332 48.45629883 C11.16204556 42.19280847 10.27388154 35.94621094 9.5 29.5625 C8.20086556 19.2085229 6.15230163 10.56927726 0 2 C0 1.34 0 0.68 0 0 Z " fill="#1052E5" transform="translate(641,307)"/>
<path d="M0 0 C0.66 3.3 1.32 6.6 2 10 C-4.75 4.375 -4.75 4.375 -7 1 C-2.25 0 -2.25 0 0 0 Z " fill="#1355E5" transform="translate(443,497)"/>
</svg>
